STARTFONT 2.1
FONT -zenimate-ToolIcons-Medium-R-Normal--32-320-75-75-C-320-ISO10646-1
SIZE 32 75 75
FONTBOUNDINGBOX 32 32 0 0
COMMENT "zenimate tool palette icons, two sizes (32px at U+E000, 24px at U+E100)"
COMMENT "Hand-corrected by Horatio in zenimate from the auto-extracted originals"
COMMENT "text (index 12) drawn programmatically, not extracted from source art"
STARTPROPERTIES 6
FOUNDRY "zenimate"
FAMILY_NAME "ToolIcons"
WEIGHT_NAME "Medium"
SLANT "R"
SETWIDTH_NAME "Normal"
PIXEL_SIZE 32
ENDPROPERTIES
CHARS 26
STARTCHAR icon_select_32
ENCODING 57344
SWIDTH 2560 0
DWIDTH 32 0
BBX 32 32 0 0
BITMAP
00000000
00000000
00000000
00000000
00000000
03C3F1F0
07E7F3F0
07E7F1F0
07000070
07000070
03000030
00000000
00000000
03000030
07000070
07000070
07000070
07000070
07000070
07000070
00000000
00000000
00000000
07000070
07000070
07C3F1F0
07E7F3F0
07E7F1F0
00000000
00000000
00000000
00000000
ENDCHAR

STARTCHAR icon_paintbrush_32
ENCODING 57345
SWIDTH 2560 0
DWIDTH 32 0
BBX 32 32 0 0
BITMAP
00000000
00000000
00000010
00000030
00000060
000000C8
0000019C
00000338
00000670
00000CE0
000019C0
00003380
00006700
0000CE00
00009C00
00079800
0009F000
0018E000
0030E000
0030E000
0067E000
00CFC000
009F8000
0F3F0000
07FE0000
03F00000
01F00000
00000000
00000000
00000000
00000000
00000000
ENDCHAR

STARTCHAR icon_fill_32
ENCODING 57346
SWIDTH 2560 0
DWIDTH 32 0
BBX 32 32 0 0
BITMAP
00000000
00000000
00000000
00180000
007E0000
00670000
00670000
00670000
00698000
0079E000
00736000
00631800
00E30E00
01C00700
03800700
07000780
0E000F80
0C001F80
08003F80
30007F80
3000F780
0801E700
0C03C700
06078700
030F0600
01FE0000
00FC0000
00780600
00000000
00000000
00000000
00000000
ENDCHAR

STARTCHAR icon_eyedropper_32
ENCODING 57347
SWIDTH 2560 0
DWIDTH 32 0
BBX 32 32 0 0
BITMAP
00000000
00000000
00000000
00000180
000007E0
00000EE0
00000CE0
000079E0
0000F780
0001FF00
0003FF00
0007FF00
0001FF00
00063E00
00061E00
00081E00
00106C00
0060C000
00618000
00830000
01060000
030C0000
01180000
03300000
01E00000
00400000
00000000
00000000
00000000
00000000
00000000
00000000
ENDCHAR

STARTCHAR icon_line_32
ENCODING 57348
SWIDTH 2560 0
DWIDTH 32 0
BBX 32 32 0 0
BITMAP
00000000
00000000
00000000
00000070
000000F0
000001E0
000003C0
00000780
00000F00
00001E00
00003C00
00007800
0000F000
0001E000
0003C000
00078000
000F0000
001E0000
003C0000
00780000
00F00000
01E00000
03C00000
07800000
0F000000
1E000000
1C000000
18000000
00000000
00000000
00000000
00000000
ENDCHAR

STARTCHAR icon_rectangle_32
ENCODING 57349
SWIDTH 2560 0
DWIDTH 32 0
BBX 32 32 0 0
BITMAP
00000000
00000000
00000000
1FFFFFF8
1FFFFFF8
1C000038
18000018
18000018
18000018
18000018
18000018
18000018
18000018
18000018
18000018
18000018
18000018
18000018
18000018
18000018
18000018
18000018
18000018
18000018
18000018
18000018
1C000038
1FFFFFF8
1FFFFFF8
00000000
00000000
00000000
ENDCHAR

STARTCHAR icon_ellipse_32
ENCODING 57350
SWIDTH 2560 0
DWIDTH 32 0
BBX 32 32 0 0
BITMAP
007FF000
01FFFC00
03FFFE00
0FE01F80
1F0003E0
1C0000F0
380000F0
70000078
F0000018
E000001C
E000001E
E000000E
E000000E
E000000E
E000000E
E000000E
E000000E
E000000E
E000000E
E000000E
E000000E
E000001C
E0000038
70000078
780000F0
3F0001E0
1F0003C0
0FC00F80
01FFFF00
007FFC00
003FF800
00000000
ENDCHAR

STARTCHAR icon_triangle_32
ENCODING 57351
SWIDTH 2560 0
DWIDTH 32 0
BBX 32 32 0 0
BITMAP
00030000
00010000
00038000
00078000
00078000
000EC000
000EE000
000EE000
00187000
00187000
00383000
00701800
00701800
00E00C00
00C00E00
01800700
01800700
07800780
07800380
07000180
0F0001E0
0E0000E0
0C0000E0
18000070
18000070
30000038
70000018
70000018
E000000E
FFFFFFFE
FFFFFFFE
FFFFFFFE
ENDCHAR

STARTCHAR icon_polygon_32
ENCODING 57352
SWIDTH 2560 0
DWIDTH 32 0
BBX 32 32 0 0
BITMAP
00000000
01FFFF00
01FFFF00
01FFFF80
07000180
0F0000C0
0F0000E0
0E0000E0
0E000070
1C000070
38000030
78000018
70000018
7000000C
7000000E
E000000E
E000000E
7000000E
7000000C
70000018
18000018
18000030
1C000070
0E000070
0E0000E0
070000E0
070000C0
07000180
07FFFF80
03FFFF00
01FFFF00
00000000
ENDCHAR

STARTCHAR icon_customshape_32
ENCODING 57353
SWIDTH 2560 0
DWIDTH 32 0
BBX 32 32 0 0
BITMAP
00000000
00001C00
00003E00
00007F00
0000E700
07FFC700
07FF8300
07FF0180
0E0001FE
0E0000FF
0E0000FF
07000007
07000007
0380000F
0180000F
0180007E
070000F0
0F0001E0
0F0003C0
38000700
70000700
E0000380
E00001C0
E00E01E0
C07F00F0
80F38070
80F1C070
C180E0E0
F780E1E0
7F007FC0
3F003F80
18001F00
ENDCHAR

STARTCHAR icon_hand_32
ENCODING 57354
SWIDTH 2560 0
DWIDTH 32 0
BBX 32 32 0 0
BITMAP
00000000
00000000
00220000
00770000
00CCF000
00CCF800
00CC9800
00CCCC00
00CCCF00
00CCCF80
00CCC8C0
00C8CC80
0780CC80
0F8000C0
0CC00080
0C800300
08000300
06000100
06000300
01000600
01800C00
00800800
00C00C00
00600800
00701000
00303000
00103000
00101000
00000000
00000000
00000000
00000000
ENDCHAR

STARTCHAR icon_zoom_32
ENCODING 57355
SWIDTH 2560 0
DWIDTH 32 0
BBX 32 32 0 0
BITMAP
00000000
00000000
00000000
00000000
00F00000
07FE0000
070E0000
08010000
0C030000
10008000
3000C000
30008000
30008000
3000C000
10008000
0C030000
08018000
070FF000
07FFF000
00F1F800
0000FE00
00007F00
00003F00
00001F80
00000F80
00000780
00000380
00000000
00000000
00000000
00000000
00000000
ENDCHAR

STARTCHAR icon_text_32
ENCODING 57356
SWIDTH 2560 0
DWIDTH 32 0
BBX 32 32 0 0
BITMAP
00000000
00000000
00000000
1FFFFFF8
1FFFFFF8
1FFFFFF8
1FFFFFF8
1FFFFFF8
000FE000
000FE000
000FE000
000FE000
000FE000
000FE000
000FE000
000FE000
000FE000
000FE000
000FE000
000FE000
000FE000
000FE000
000FE000
000FE000
000FE000
000FE000
000FE000
000FE000
000FE000
00000000
00000000
00000000
ENDCHAR

STARTCHAR icon_select_24
ENCODING 57600
SWIDTH 1920 0
DWIDTH 24 0
BBX 24 24 0 0
BITMAP
000000
000000
000000
000000
0F3E78
0F3E78
0C0018
0C0018
000000
000000
0C0018
0C0018
0C0018
0C0018
0C0018
000000
000000
0C0018
0C0018
0F3E78
0F3E78
000000
000000
000000
ENDCHAR

STARTCHAR icon_paintbrush_24
ENCODING 57601
SWIDTH 1920 0
DWIDTH 24 0
BBX 24 24 0 0
BITMAP
000000
000000
000008
000010
000024
00004C
000098
000130
000260
0004C0
000980
003B00
005E00
008C00
008C00
013C00
027800
1CF000
0FE000
078000
000000
000000
000000
000000
ENDCHAR

STARTCHAR icon_fill_24
ENCODING 57602
SWIDTH 1920 0
DWIDTH 24 0
BBX 24 24 0 0
BITMAP
000000
000000
00C000
01E000
013000
013000
015800
019400
011300
031180
0600C0
0C00E0
1801E0
1003E0
2007E0
200EE0
101CC0
0838C0
047080
03E000
01C080
000000
000000
000000
ENDCHAR

STARTCHAR icon_eyedropper_24
ENCODING 57603
SWIDTH 1920 0
DWIDTH 24 0
BBX 24 24 0 0
BITMAP
000000
000000
000060
0000F0
0001B0
000770
000EE0
001FC0
003FC0
001FC0
002380
004380
008500
010800
021000
042000
044000
048000
070000
000000
000000
000000
000000
000000
ENDCHAR

STARTCHAR icon_line_24
ENCODING 57604
SWIDTH 1920 0
DWIDTH 24 0
BBX 24 24 0 0
BITMAP
000000
000000
000018
000038
000070
0000E0
0001C0
000380
000700
000E00
001C00
003800
007000
00E000
01C000
038000
070000
0E0000
1C0000
380000
300000
000000
000000
000000
ENDCHAR

STARTCHAR icon_rectangle_24
ENCODING 57605
SWIDTH 1920 0
DWIDTH 24 0
BBX 24 24 0 0
BITMAP
000000
000000
3FFFFC
3FFFFC
30000C
30000C
30000C
30000C
30000C
30000C
30000C
30000C
30000C
30000C
30000C
30000C
30000C
30000C
30000C
30000C
3FFFFC
3FFFFC
000000
000000
ENDCHAR

STARTCHAR icon_ellipse_24
ENCODING 57606
SWIDTH 1920 0
DWIDTH 24 0
BBX 24 24 0 0
BITMAP
01FE00
07FF80
1F03E0
3C0070
300038
60001C
E0000C
C0000E
C00006
C00006
C00006
C00006
C00006
C00006
C00006
C00006
C0000C
60001C
700038
3C0070
1E01E0
07FFC0
01FF00
000000
ENDCHAR

STARTCHAR icon_triangle_24
ENCODING 57607
SWIDTH 1920 0
DWIDTH 24 0
BBX 24 24 0 0
BITMAP
001000
001000
003800
003800
006C00
006C00
00C600
00C600
018300
018300
030180
0600C0
0600C0
0E00E0
0C0060
1C0070
180030
300018
300018
60000C
60000C
C00006
FFFFFE
FFFFFE
ENDCHAR

STARTCHAR icon_polygon_24
ENCODING 57608
SWIDTH 1920 0
DWIDTH 24 0
BBX 24 24 0 0
BITMAP
000000
07FFC0
07FFE0
0C0060
1C0030
180030
180018
300018
70000C
60000C
600006
C00006
C00006
600006
60000C
30000C
300018
180018
180030
0C0030
0C0060
0FFFE0
07FFC0
000000
ENDCHAR

STARTCHAR icon_customshape_24
ENCODING 57609
SWIDTH 1920 0
DWIDTH 24 0
BBX 24 24 0 0
BITMAP
000000
000380
0007C0
000CC0
0FF8C0
0FF060
18007E
18003F
0C0003
0C0003
060007
06001E
0C0038
1C0070
3000C0
6000C0
C00060
C06070
81F038
839818
860C30
EE0C70
7C07E0
3003C0
ENDCHAR

STARTCHAR icon_hand_24
ENCODING 57610
SWIDTH 1920 0
DWIDTH 24 0
BBX 24 24 0 0
BITMAP
000000
000000
01B000
024E00
024B00
024900
0249C0
024920
024920
0E0920
120020
120040
100040
080040
040080
060100
020100
010100
018200
008200
008200
000000
000000
000000
ENDCHAR

STARTCHAR icon_zoom_24
ENCODING 57611
SWIDTH 1920 0
DWIDTH 24 0
BBX 24 24 0 0
BITMAP
000000
000000
000000
038000
0C6000
101000
101000
200800
200800
200800
200800
101000
101800
0C7E00
039F00
000F80
0007C0
0003E0
0001E0
0000E0
000000
000000
000000
000000
ENDCHAR

STARTCHAR icon_text_24
ENCODING 57612
SWIDTH 1920 0
DWIDTH 24 0
BBX 24 24 0 0
BITMAP
000000
000000
3FFFFC
3FFFFC
3FFFFC
3FFFFC
007C00
007C00
007C00
007C00
007C00
007C00
007C00
007C00
007C00
007C00
007C00
007C00
007C00
007C00
007C00
007C00
000000
000000
ENDCHAR
ENDFONT
